<?xml version="1.0" encoding="UTF-8" standalone="no"?>
<!-- Created with Inkscape (http://www.inkscape.org/) -->

<svg
   width="13.074468mm"
   height="13.667202mm"
   viewBox="0 0 13.074468 13.667202"
   version="1.1"
   id="svg37991"
   xmlns="http://www.w3.org/2000/svg"
   xmlns:svg="http://www.w3.org/2000/svg">
  <defs
     id="defs37988" />
  <rect
     style="fill:#ffffff;stroke-width:2.035"
     id="rect845"
     width="13.074468"
     height="13.667202"
     x="0"
     y="0" />
  <g
     id="layer1"
     transform="translate(-136.41352,-100.56749)">
    <path
       id="path95975-8-2-9-7-9-2-0-2"
       style="font-size:19.7556px;-inkscape-font-specification:'Berkeley Mono Variable Semi-Bold';stroke-width:0.264583"
       d="m 143.71339,102.11448 c -0.72438,0 -1.28387,0.11847 -1.67898,0.35554 -0.39511,0.23707 -0.93503,0.67859 -1.3038,1.32394 0,-0.47417 0,-0.94844 0,-1.42265 h -2.41019 v 4.51549 h 2.41846 c 0.0225,-0.59142 0.0918,-1.06291 0.20877,-1.41387 0.15805,-0.44778 0.40843,-0.76387 0.75086,-0.94826 0.3556,-0.18438 0.85586,-0.27647 1.5012,-0.27647 0.50047,0 0.88924,0.0592 1.16582,0.17777 0.27658,0.10537 0.46773,0.296 0.57309,0.57257 0.1185,0.26341 0.17777,0.63925 0.17777,1.12656 v 0.7617 h 2.41019 v -0.72244 c 0,-1.06679 -0.11847,-1.88313 -0.35553,-2.44945 -0.22389,-0.5795 -0.6062,-0.98818 -1.14619,-1.22525 -0.53999,-0.25023 -1.31053,-0.37517 -2.31147,-0.37518 z m -5.39297,6.12883 v 4.44055 h 2.41019 v -4.44055 z m 6.79597,0 v 4.44055 h 2.41019 v -4.44055 z" />
  </g>
</svg>
