<?xml version="1.0" encoding="UTF-8" standalone="no"?>
<!-- Created with Inkscape (http://www.inkscape.org/) -->

<svg
   width="21.206478mm"
   height="21.206461mm"
   viewBox="0 0 21.206478 21.206461"
   version="1.1"
   id="svg36306"
   sodipodi:docname="n-box.inkscape.svg"
   inkscape:version="1.1.2 (0a00cf5339, 2022-02-04)"
   inkscape:export-filename="autonity logo/2023-02-17-final/alpha-box-blackonwhite-30.png"
   inkscape:export-xdpi="35.933327"
   inkscape:export-ydpi="35.933327"
   xmlns:inkscape="http://www.inkscape.org/namespaces/inkscape"
   xmlns:sodipodi="http://sodipodi.sourceforge.net/DTD/sodipodi-0.dtd"
   xmlns="http://www.w3.org/2000/svg"
   xmlns:svg="http://www.w3.org/2000/svg">
  <sodipodi:namedview
     id="namedview16"
     pagecolor="#ffffff"
     bordercolor="#666666"
     borderopacity="1.0"
     inkscape:pageshadow="2"
     inkscape:pageopacity="0.0"
     inkscape:pagecheckerboard="true"
     inkscape:document-units="mm"
     showgrid="false"
     inkscape:zoom="7.1190417"
     inkscape:cx="35.327788"
     inkscape:cy="38.839497"
     inkscape:window-width="1868"
     inkscape:window-height="1136"
     inkscape:window-x="0"
     inkscape:window-y="0"
     inkscape:window-maximized="1"
     inkscape:current-layer="svg36306"
     inkscape:snap-page="true"
     fit-margin-top="0"
     fit-margin-left="0"
     fit-margin-right="0"
     fit-margin-bottom="0"
     showguides="true"
     inkscape:guide-bbox="true"
     inkscape:snap-bbox="true"
     inkscape:snap-bbox-edge-midpoints="true">
    <sodipodi:guide
       position="5.9999971,11.115482"
       orientation="0,-1"
       id="guide4382" />
    <sodipodi:guide
       position="5.9999971,9.7589716"
       orientation="0,-1"
       id="guide4384" />
    <sodipodi:guide
       position="5.1291372,10.43451"
       orientation="0,-1"
       id="guide4512" />
    <sodipodi:guide
       position="5.129137,11.251677"
       orientation="0,-1"
       id="guide4514" />
    <sodipodi:guide
       position="5.129137,9.6173436"
       orientation="0,-1"
       id="guide4516" />
    <sodipodi:guide
       position="5.9999971,11.115482"
       orientation="1,0"
       id="guide4537" />
    <sodipodi:guide
       position="8.418457,11.115482"
       orientation="1,0"
       id="guide4539" />
    <sodipodi:guide
       position="12.795967,11.115482"
       orientation="1,0"
       id="guide4541" />
    <sodipodi:guide
       position="15.206157,11.115482"
       orientation="1,0"
       id="guide4543" />
  </sodipodi:namedview>
  <defs
     id="defs36303" />
  <rect
     style="fill:#ffffff;stroke-width:2.035"
     id="rect5304"
     width="18.602825"
     height="18.943705"
     x="1.4713795"
     y="1.2241414" />
  <path
     id="rect8317-62-7-2"
     style="fill:#000000;stroke-width:2.035"
     d="M 0,9.5275879e-7 V 21.206461 h 21.205937 5.3e-4 c -0.001,-7.20403 1.3e-4,-14.72688 0,-21.20646004724121 z M 2.410148,2.410421 h 16.386119 v 16.38587 l -16.386119,-10e-6 z"
     sodipodi:nodetypes="ccccccccccc"
     inkscape:export-filename="autonity logo/2023-02-17-final/autonity-logos-overview.png"
     inkscape:export-xdpi="276.42999"
     inkscape:export-ydpi="276.42999" />
  <path
     id="path95975-8-2-9-7-9-2-0-2"
     style="font-size:19.7556px;-inkscape-font-specification:'Berkeley Mono Variable Semi-Bold';stroke-width:0.264583"
     d="m 11.392957,5.318661 c -0.72438,0 -1.28386,0.11847 -1.67897,0.35554 -0.39511,0.23707 -0.93503,0.67859 -1.3038,1.32394 0,-0.47417 0,-0.94844 0,-1.42265 h -2.41019 v 4.51549 h 2.41846 c 0.0225,-0.59142 0.0918,-1.06291 0.20877,-1.41387 0.15805,-0.44778 0.40843,-0.76387 0.75086,-0.94826 0.3556,-0.18438 0.85585,-0.27647 1.5012,-0.27647 0.50047,0 0.88924,0.0592 1.16582,0.17777 0.27658,0.10537 0.46773,0.296 0.57309,0.57257 0.1185,0.26341 0.17777,0.63925 0.17777,1.12656 v 0.7617 h 2.41019 v -0.72244 c 0,-1.06679 -0.11847,-1.88313 -0.35553,-2.44945 -0.22389,-0.5795 -0.6062,-0.98818 -1.14619,-1.22525 -0.53999,-0.25023 -1.31053,-0.37517 -2.31148,-0.37518 z m -5.39296,6.12883 v 4.44055 h 2.41019 v -4.44055 z m 6.79597,0 v 4.44055 h 2.41019 v -4.44055 z"
     sodipodi:nodetypes="sscccccccsccsccsccscccccccccc"
     inkscape:export-filename="autonity logo/2023-02-17-final/autonity-logos-overview.png"
     inkscape:export-xdpi="276.42999"
     inkscape:export-ydpi="276.42999" />
</svg>
