<?xml version="1.0" encoding="UTF-8" standalone="no"?>
<!-- Created with Inkscape (http://www.inkscape.org/) -->

<svg
   width="13.233852mm"
   height="13.293176mm"
   viewBox="0 0 13.233852 13.293176"
   version="1.1"
   id="svg36306"
   sodipodi:docname="n-verysmall-blackonwhite.inkscape.svg"
   inkscape:version="1.1.2 (0a00cf5339, 2022-02-04)"
   inkscape:export-filename="autonity logo/2023-02-17-final/n-blackonwhite-30.png"
   inkscape:export-xdpi="57.580002"
   inkscape:export-ydpi="57.580002"
   xmlns:inkscape="http://www.inkscape.org/namespaces/inkscape"
   xmlns:sodipodi="http://sodipodi.sourceforge.net/DTD/sodipodi-0.dtd"
   xmlns="http://www.w3.org/2000/svg"
   xmlns:svg="http://www.w3.org/2000/svg">
  <sodipodi:namedview
     id="namedview16"
     pagecolor="#ffffff"
     bordercolor="#666666"
     borderopacity="1.0"
     inkscape:pageshadow="2"
     inkscape:pageopacity="0.0"
     inkscape:pagecheckerboard="true"
     inkscape:document-units="mm"
     showgrid="false"
     inkscape:zoom="7.1190417"
     inkscape:cx="20.578612"
     inkscape:cy="23.809384"
     inkscape:window-width="1868"
     inkscape:window-height="1136"
     inkscape:window-x="0"
     inkscape:window-y="0"
     inkscape:window-maximized="1"
     inkscape:current-layer="svg36306"
     inkscape:snap-page="true"
     fit-margin-top="0"
     fit-margin-left="0"
     fit-margin-right="0"
     fit-margin-bottom="0"
     showguides="true"
     inkscape:guide-bbox="true"
     inkscape:snap-bbox="true"
     inkscape:snap-bbox-edge-midpoints="true"
     inkscape:snap-global="false">
    <sodipodi:guide
       position="2.0657389,7.1849806"
       orientation="0,-1"
       id="guide4382" />
    <sodipodi:guide
       position="2.0657389,5.8284703"
       orientation="0,-1"
       id="guide4384" />
    <sodipodi:guide
       position="1.1948791,6.5040086"
       orientation="0,-1"
       id="guide4512" />
    <sodipodi:guide
       position="1.1948789,7.3211756"
       orientation="0,-1"
       id="guide4514" />
    <sodipodi:guide
       position="1.1948789,5.6868423"
       orientation="0,-1"
       id="guide4516" />
    <sodipodi:guide
       position="2.0657389,7.1849806"
       orientation="1,0"
       id="guide4537" />
    <sodipodi:guide
       position="4.4841989,7.1849806"
       orientation="1,0"
       id="guide4539" />
    <sodipodi:guide
       position="8.8617087,7.1849806"
       orientation="1,0"
       id="guide4541" />
    <sodipodi:guide
       position="11.271899,7.1849806"
       orientation="1,0"
       id="guide4543" />
  </sodipodi:namedview>
  <defs
     id="defs36303" />
  <rect
     style="fill:#ffffff;stroke-width:2.03499"
     id="rect1185"
     width="13.233852"
     height="13.293176"
     x="0"
     y="0" />
  <path
     id="path95975-8-2-9-7-9-2-0-2"
     style="font-size:19.7556px;-inkscape-font-specification:'Berkeley Mono Variable Semi-Bold';fill:#000000;stroke-width:0.264583"
     d="m 7.4586989,1.335876 c -0.72438,0 -1.28386,0.11847 -1.67897,0.35554 -0.39511,0.23707 -0.93503,0.67859 -1.3038,1.32394 v -1.42265 h -2.41019 l -10e-8,4.3792944 h 2.4184601 c 0.0225,-0.59142 0.0918,-0.9267144 0.20877,-1.2776744 0.15805,-0.44778 0.40843,-0.76387 0.75086,-0.94826 0.3556,-0.18438 0.85585,-0.27647 1.5012,-0.27647 0.50047,0 0.88924,0.0592 1.16582,0.17777 0.27658,0.10537 0.46773,0.296 0.57309,0.57257 0.1185,0.26341 0.17777,0.63925 0.17777,1.12656 l -10e-7,0.6255044 h 2.4101901 l 10e-7,-0.5862444 c 1e-6,-1.06679 -0.11847,-1.88313 -0.35553,-2.44945 -0.22389,-0.5795 -0.6062,-0.98818 -1.1461901,-1.22525 -0.53999,-0.25023 -1.31053,-0.37517 -2.31148,-0.37518 z m -5.3929601,6.270458 10e-8,4.298922 h 2.41019 V 7.606334 Z m 6.7959691,0 10e-7,4.298922 h 2.4101901 l -10e-7,-4.298922 z"
     sodipodi:nodetypes="sscccccccsccsccsccscccccccccc"
     inkscape:export-filename="autonity logo/2023-02-17-final/autonity-logos-overview.png"
     inkscape:export-xdpi="276.42999"
     inkscape:export-ydpi="276.42999" />
</svg>
