<?xml version="1.0" encoding="UTF-8" standalone="no"?>
<!-- Created with Inkscape (http://www.inkscape.org/) -->

<svg
   width="9.2061605mm"
   height="10.56938mm"
   viewBox="0 0 9.2061605 10.56938"
   version="1.1"
   id="svg36306"
   sodipodi:docname="n-verysmall.inkscape.svg"
   inkscape:version="1.1.2 (0a00cf5339, 2022-02-04)"
   inkscape:export-filename="autonity logo/2023-02-17-final/n-box-whiteonblack-30.png"
   inkscape:export-xdpi="35.933327"
   inkscape:export-ydpi="35.933327"
   xmlns:inkscape="http://www.inkscape.org/namespaces/inkscape"
   xmlns:sodipodi="http://sodipodi.sourceforge.net/DTD/sodipodi-0.dtd"
   xmlns="http://www.w3.org/2000/svg"
   xmlns:svg="http://www.w3.org/2000/svg">
  <sodipodi:namedview
     id="namedview16"
     pagecolor="#ffffff"
     bordercolor="#666666"
     borderopacity="1.0"
     inkscape:pageshadow="2"
     inkscape:pageopacity="0.0"
     inkscape:pagecheckerboard="true"
     inkscape:document-units="mm"
     showgrid="false"
     inkscape:zoom="7.1190417"
     inkscape:cx="12.712385"
     inkscape:cy="18.752524"
     inkscape:window-width="1868"
     inkscape:window-height="1136"
     inkscape:window-x="0"
     inkscape:window-y="0"
     inkscape:window-maximized="1"
     inkscape:current-layer="svg36306"
     inkscape:snap-page="true"
     fit-margin-top="0"
     fit-margin-left="0"
     fit-margin-right="0"
     fit-margin-bottom="0"
     showguides="true"
     inkscape:guide-bbox="true"
     inkscape:snap-bbox="true"
     inkscape:snap-bbox-edge-midpoints="true">
    <sodipodi:guide
       position="2.3711939e-07,5.797061"
       orientation="0,-1"
       id="guide4382" />
    <sodipodi:guide
       position="2.3711939e-07,4.4405506"
       orientation="0,-1"
       id="guide4384" />
    <sodipodi:guide
       position="-0.87085968,5.116089"
       orientation="0,-1"
       id="guide4512" />
    <sodipodi:guide
       position="-0.87085988,5.933256"
       orientation="0,-1"
       id="guide4514" />
    <sodipodi:guide
       position="-0.87085988,4.2989226"
       orientation="0,-1"
       id="guide4516" />
    <sodipodi:guide
       position="2.3711939e-07,5.797061"
       orientation="1,0"
       id="guide4537" />
    <sodipodi:guide
       position="2.4184602,5.797061"
       orientation="1,0"
       id="guide4539" />
    <sodipodi:guide
       position="6.7959703,5.797061"
       orientation="1,0"
       id="guide4541" />
    <sodipodi:guide
       position="9.2061604,5.797061"
       orientation="1,0"
       id="guide4543" />
  </sodipodi:namedview>
  <defs
     id="defs36303" />
  <path
     id="path95975-8-2-9-7-9-2-0-2"
     style="font-size:19.7556px;-inkscape-font-specification:'Berkeley Mono Variable Semi-Bold';fill:#000000;stroke-width:0.264583"
     d="m 5.3929601,0 c -0.72438,0 -1.28386,0.11847 -1.67897,0.35554 -0.39511,0.23707 -0.93503,0.67859 -1.3038,1.32394 V 0.25683 H 1e-7 L 0,4.6361244 h 2.4184601 c 0.0225,-0.59142 0.0918,-0.9267144 0.20877,-1.2776744 0.15805,-0.44778 0.40843,-0.76387 0.75086,-0.94826 0.3556,-0.18438 0.85585,-0.27647 1.5012,-0.27647 0.50047,0 0.88924,0.0592 1.16582,0.17777 0.27658,0.10537 0.46773,0.296 0.57309,0.57257 0.1185,0.26341 0.17777,0.63925 0.17777,1.12656 l -1e-6,0.6255044 h 2.41019 l 10e-7,-0.5862444 c 10e-7,-1.06679 -0.11847,-1.88313 -0.35553,-2.44945 -0.22389,-0.5795 -0.6062,-0.98818 -1.14619,-1.22525 C 7.1644501,0.12495 6.3939101,10e-6 5.3929601,0 Z M 0,6.270458 1e-7,10.56938 h 2.41019 V 6.270458 Z m 6.7959691,0 1e-6,4.298922 h 2.41019 l -10e-7,-4.298922 z"
     sodipodi:nodetypes="sscccccccsccsccsccscccccccccc"
     inkscape:export-filename="autonity logo/2023-02-17-final/autonity-logos-overview.png"
     inkscape:export-xdpi="276.42999"
     inkscape:export-ydpi="276.42999" />
</svg>
