<?xml version="1.0" encoding="UTF-8" standalone="no"?>
<!-- Created with Inkscape (http://www.inkscape.org/) -->

<svg
   width="9.2061596mm"
   height="10.56938mm"
   viewBox="0 0 9.2061596 10.56938"
   version="1.1"
   id="svg37991"
   inkscape:version="1.1.2 (0a00cf5339, 2022-02-04)"
   sodipodi:docname="n.inkscape.svg"
   xmlns:inkscape="http://www.inkscape.org/namespaces/inkscape"
   xmlns:sodipodi="http://sodipodi.sourceforge.net/DTD/sodipodi-0.dtd"
   xmlns="http://www.w3.org/2000/svg"
   xmlns:svg="http://www.w3.org/2000/svg">
  <sodipodi:namedview
     id="namedview37993"
     pagecolor="#ffffff"
     bordercolor="#666666"
     borderopacity="1.0"
     inkscape:pageshadow="2"
     inkscape:pageopacity="0.0"
     inkscape:pagecheckerboard="true"
     inkscape:document-units="mm"
     showgrid="false"
     fit-margin-top="0"
     fit-margin-left="0"
     fit-margin-right="0"
     fit-margin-bottom="0"
     inkscape:zoom="1.4790474"
     inkscape:cx="-126.09467"
     inkscape:cy="121.3619"
     inkscape:window-width="1868"
     inkscape:window-height="1136"
     inkscape:window-x="0"
     inkscape:window-y="0"
     inkscape:window-maximized="1"
     inkscape:current-layer="layer1" />
  <defs
     id="defs37988" />
  <g
     inkscape:label="Layer 1"
     inkscape:groupmode="layer"
     id="layer1"
     transform="translate(-138.32042,-102.11448)">
    <path
       id="path95975-8-2-9-7-9-2-0-2"
       style="font-size:19.7556px;-inkscape-font-specification:'Berkeley Mono Variable Semi-Bold';stroke-width:0.264583"
       d="m 143.71339,102.11448 c -0.72438,0 -1.28387,0.11847 -1.67898,0.35554 -0.39511,0.23707 -0.93503,0.67859 -1.3038,1.32394 0,-0.47417 0,-0.94844 0,-1.42265 h -2.41019 v 4.51549 h 2.41846 c 0.0225,-0.59142 0.0918,-1.06291 0.20877,-1.41387 0.15805,-0.44778 0.40843,-0.76387 0.75086,-0.94826 0.3556,-0.18438 0.85586,-0.27647 1.5012,-0.27647 0.50047,0 0.88924,0.0592 1.16582,0.17777 0.27658,0.10537 0.46773,0.296 0.57309,0.57257 0.1185,0.26341 0.17777,0.63925 0.17777,1.12656 v 0.7617 h 2.41019 v -0.72244 c 0,-1.06679 -0.11847,-1.88313 -0.35553,-2.44945 -0.22389,-0.5795 -0.6062,-0.98818 -1.14619,-1.22525 -0.53999,-0.25023 -1.31053,-0.37517 -2.31147,-0.37518 z m -5.39297,6.12883 v 4.44055 h 2.41019 v -4.44055 z m 6.79597,0 v 4.44055 h 2.41019 v -4.44055 z"
       sodipodi:nodetypes="sscccccccsccsccsccscccccccccc"
       inkscape:export-filename="autonity logo/2023-02-17-final/autonity-logos-overview.png"
       inkscape:export-xdpi="276.42999"
       inkscape:export-ydpi="276.42999" />
  </g>
</svg>
