<?xml version="1.0" encoding="UTF-8" standalone="no"?>
<!-- Created with Inkscape (http://www.inkscape.org/) -->

<svg
   width="13.066921mm"
   height="10.67124mm"
   viewBox="0 0 13.066921 10.67124"
   version="1.1"
   id="svg36306"
   xmlns="http://www.w3.org/2000/svg"
   xmlns:svg="http://www.w3.org/2000/svg">
  <defs
     id="defs36303" />
  <path
     id="path1252-1-1-0"
     style="color:#000000;font-size:18.9487px;fill:#000000;stroke:none;stroke-width:0.497369;stroke-opacity:1;-inkscape-stroke:none"
     d="M 6.194454,7e-5 C 4.830792,7e-5 3.637849,0.48428 2.673739,1.41911 1.900852,2.1651201 1.480024,3.2511001 1.37976,4.6571501 H 0.315743 L 0,6.0136501 h 1.379244 c 0.09532,1.32401 0.482418,2.40866 1.178221,3.23805 0.798296,0.9454899 2.042129,1.4195399 3.636989,1.4195399 0.961089,0 1.62415,-0.0949 2.016414,-0.41961 0.510243,-0.4194899 0.77258,-0.7030699 1.07797,-1.2190499 0.118611,0.30891 0.282618,0.42183 0.497129,0.61702 l 0.0026,0.002 c 0.584541,0.5192499 1.23943,0.8025399 1.933215,0.8025399 h 1.345139 V 8.6242701 h -1.12758 c -0.0775,0 -0.269423,-0.0808 -0.515731,-0.33693 -0.20261,-0.21083 -0.322821,-0.43067 -0.373105,-0.67386 l -0.329695,-1.59989 2.346111,-9e-5 v -1.35656 H 11.034212 L 12.776498,0.21704 H 10.611303 L 9.879563,2.2174401 C 9.644878,1.5719701 9.300877,1.13009 8.802111,0.74931 8.141309,0.24482 7.257677,0 6.195034,0 Z m 0,1.8298601 h 5.3e-4 c 1.562615,0 1.849493,1.00757 2.145553,2.82713 l -4.512333,9e-5 c 0.179419,-1.78587 0.887473,-2.82722 2.36625,-2.82722 z m -2.380218,4.18372 4.526301,-4e-5 c -0.214743,1.50563 -0.941146,2.86291 -2.145506,2.86291 -1.674574,10e-6 -2.193959,-1.09072 -2.380734,-2.86287 z" />
</svg>
