<?xml version="1.0" encoding="UTF-8" standalone="no"?>
<!-- Created with Inkscape (http://www.inkscape.org/) -->

<svg
   width="16mm"
   height="16mm"
   viewBox="0 0 16 16"
   version="1.1"
   id="svg36306"
   xmlns="http://www.w3.org/2000/svg"
   xmlns:svg="http://www.w3.org/2000/svg">
  <defs
     id="defs36303" />
  <path
     id="path1252-1-1-0"
     style="color:#000000;font-size:18.9487px;fill:#000000;stroke:none;stroke-width:0.497369;stroke-opacity:1;-inkscape-stroke:none"
     d="m 7.6501382,2.6484368 c -1.363662,0 -2.556605,0.48421 -3.520715,1.41904 -0.772887,0.7460101 -1.193715,1.8319901 -1.293979,3.2380401 h -1.064017 l -0.315743,1.3565 h 1.379244 c 0.09532,1.32401 0.482418,2.4086601 1.178221,3.2380501 0.798296,0.94549 2.042129,1.41954 3.636989,1.41954 0.961089,0 1.62415,-0.0949 2.016414,-0.41961 0.5102428,-0.41949 0.7725798,-0.70307 1.0779698,-1.21905 0.118611,0.30891 0.282618,0.42183 0.497129,0.61702 l 0.0026,0.002 c 0.584541,0.51925 1.23943,0.80254 1.933215,0.80254 h 1.345139 v -1.82987 h -1.12758 c -0.0775,0 -0.269423,-0.0808 -0.515731,-0.33693 -0.20261,-0.21083 -0.322821,-0.43067 -0.373105,-0.67386 l -0.329695,-1.5998901 2.346111,-9e-5 v -1.35656 h -2.032709 l 1.742286,-4.4399001 h -2.165195 l -0.73174,2.0004001 C 11.100562,4.2203369 10.756561,3.7784568 10.257795,3.3976768 9.5969932,2.8931868 8.7133612,2.6483668 7.6507182,2.6483668 Z m 0,1.8298601 h 5.3e-4 c 1.562615,0 1.849493,1.00757 2.145553,2.82713 l -4.512333,9e-5 c 0.179419,-1.78587 0.887473,-2.82722 2.36625,-2.82722 z m -2.380218,4.18372 4.526301,-4e-5 c -0.214743,1.5056301 -0.941146,2.8629101 -2.145506,2.8629101 -1.674574,10e-6 -2.193959,-1.09072 -2.380734,-2.8628701 z" />
</svg>
